# xmcd CD database file
#
# Track frame offsets:
#	150
#	16783
#	34910
#	60185
#	84585
#	106760
#	124607
#	151985
#	171335
#	195609
#
# Disc length: 2873 seconds
#
# Revision: 0
# Processed by: cddbd v1.5.2PL0 Copyright (c) Steve Scherf et al.
# Submitted via: CDex 1.70beta2
#
DISCID=6f0b370a
DTITLE=Fredrik noren Band - To Mr. J
DYEAR=1990
DGENRE=Jazz
TTITLE0=Inner City Baby
TTITLE1=Part of
TTITLE2=I'm Hip
TTITLE3=Damerance
TTITLE4=Rollo's little sister
TTITLE5=to Mr. J
TTITLE6=No comments
TTITLE7=Mirrors
TTITLE8=somone to watch over me
TTITLE9=Mäster
EXTD=YEAR: 1990
EXTT0=
EXTT1=
EXTT2=
EXTT3=
EXTT4=
EXTT5=
EXTT6=
EXTT7=
EXTT8=
EXTT9=
PLAYORDER=
